<?xml version="1.0" encoding="UTF-8"?>
<svg id="Layer_2" data-name="Layer 2" xmlns="http://www.w3.org/2000/svg" viewBox="0 0 3580.38 1028.89">
  <defs>
    <style>
      .cls-1 {
        fill: none;
        stroke: #231f20;
        stroke-miterlimit: 10;
        stroke-width: 4px;
      }
    </style>
  </defs>
  <g id="Layer_1-2" data-name="Layer 1">
    <g>
      <path class="cls-1" d="M690.75,898.97l-3,.02c15.01-20.14.27-7.56-2.12-19-.44-2.12,8.33-7.63,8.19-13.81-.01-.57-7.33-4.03-7.61-8.52-.17-2.74,4.74-14.65,5.29-19.75.12-1.13-4.15.19-3.62-3.58.67-4.66,10.23-10.61-6.82-7.24-2.01.4-.74,4.77-2.32,3.98-2.35-1.19-13.48-25.98-5.06-21.96.38.18.4,7.22,5.98,5.92,2-.47,13.3-32.53,12.07-33.87-2.01-2.17-7.94,6.09-9.99,3.96-.49-.51,1.82-5.23,1.11-8.05-1.76-7.01-7.43-13.62-8.25-16.81-.97-3.76,5.04-29.99-10.8-9.61-1.95,2.51-1.74,8.25-2.07,8.55-.89.8-5.44-2.49-5.96-2.04-.64.55-3.77,17.18-7.99,14-9.12-6.87-.29-49.44-2.15-54.71-1.26-3.57-6.97-2.6-7.56-3.49-.57-.86-.73-15.67-4.33-19.68-3.43-3.82-5.17,8.77-7.96,3.97-1.41-2.42,1.74-9.27,1.31-12.63-.31-2.42-3.34-4.87-3.56-10.25-.05-1.3-.04-2.66,0-4.05-.61-.63-1.22-1.25-1.83-1.87-.26,1.1-.57,2.05-.96,2.81-1.12,2.17-9.07,5.02-10.12,8.02-1.01,2.89,4.33,4.89,3.15,5.97-4.77,4.4-11.26-17.12-12.01-17.94-3.79-4.11-14.16,17.3-15.94,17.95,1.31-7.79-5.36-1.18-6-1.98-.72-.9.67-7.13-.04-7.99-.67-.82-4.46,2.07-5.06,1.77-1.4-.7-.66-3.03-1.88-3.33-2.21-.54-7.23,1.54-11.6-.86-5.88-3.23-.96-7.04-1.41-7.54-.85-.96-21.67-8.39-23.99-6.01-5.63-22.11-14.9.61-20.97,8.11-1.32,1.64-6.1,1.33-6.73,2.19-1.37,1.86.33,6.97-.31,7.69-.94,1.04-9.79-2.6-13-2.2-7.01.88-10.08,6.66-19.54,3.75-5.4-1.66-9.87-15.13-18.2-13.73-2.46.41-13.8,30.05-26.66,24.88-6.62-2.66-5.17-28.95-7.5-36.73-2.74-9.14-13.63-10.62-12.85-17.04.1-.84,3.43-.77,3.74-2.27,2.84-13.65-5.91-5.65-7.94-8.63-.47-.69,2.37-4.84.29-7.09-3.39-3.68-9.54-2.34-10.15-3.02-.97-1.09.88-5.72-.45-7.5-.63-.85-5.03-.21-6.55-2.39-5-7.18-5.32-13.83-11.03-21.56-.62-.84.71-10.87-11.24-7.8-2.85.73-2.65,6.49-4.87,8.43-3.45,3.01-8.78,1.97-11.83,4.23-10.9,8.1-14.13,17.18-29.65,22.18-2.88.93-10.12-1.17-13.01.5-2.52,1.45-1.3,5.75-4.61,7.87-13.5,8.62-57.03,35.75-69.38,40.57-2.48.97-4.63,2.12-7.42,1.55-1.84-5.36,3.39-3.13,3.97-5.35,1.13-4.35-.65-7.53,2.27-13.36,3.27-6.52,10.97-6.63,11.81-8.58,2.15-5,3.04-45.25,1.93-51.64-1.31-7.53-10.56,1.35-10.1-17.95.47-19.43,18.57-37.84,20.81-51.17.73-4.33-1.44-8.73-.84-12.72,1.25-8.35,10.49-34.49-3.87-32.97.87,2.81,2.82,17.01-.99,15.97-1.99-.55-6.35-15.19.99-15.97-2.8-9.09-14.48-14.51-14.07-24.82-1.62-5.95,1.95-13.29,3.24-19.15-2.59-11.13-4.82-24.44-4.91-27.19-.3-9.96,10.36-30.27-4.23-33.75-.91-6.7,5.43,1.03,6-1.98,1.32-7.07-5.13-15.39-5.58-20.41-2.3-26.06,9.87-31.81,13.14-52.07,2.26-13.97-3.82-38.05-1.78-49.37.88-4.89,11.15-7.71,10-23.65-.82-11.44-11.94-10.75-15.34-22.81-2.44-8.66,4.87-5.16,3.49-9.38-.73-2.24-9.11-9.47-10.8-13.21-6-13.28-2.47-46.31-22.1-47.97-8.05-.68-17.83,4.13-25.27,1.66-1.16.05-2.32.03-3.5-.05-3.57.41-7.07.79-10.64.87-9.78,1.53-48.71,3.1-56.56,3.88-26.42,2.65-57.7,10.85-84.21,11.55-4.8.13-14.16-4.25-14.73-3.75-.28.24.36,4.82-1.98,7-2.44,2.27-7.82,2.66-8.04,3.02-.82,1.34,4.18,4.13,5.06,6.05,1.1,2.39-1.33,5.7-1.1,5.89,1.63,1.3,10.12-2.45,11.95,7.1,2.07,10.81-4.59,5.63-5.93,6.92-.81.78,7.2,6.91,7.99,11.06.25,1.29-2.02,20.41-2.46,21.39-3.42,7.77-12.01,7.85-14.6,11.38-4.22,5.75,14,18.81,11.1,27.05-7.8-2.87.14,9.15.19,18.09.03,5.29-6.06,20.55-6.05,23.84,0,7.09,9.36,15.09-.14,20.98,12.85-2.38,2.3,22.93,4.97,30.98,1.26,3.82,5.69,4.99,6.77,8.46,1.06,3.4-1.88,7.16-1.46,8.28.21.55,4.75.14,5.75,5.17,4.01,20.28-1.66,32.85-2.08,49.85-.03,1.12,4.03,1.15,4.09,2.28.19,3.39-6.72,18.58,3.93,18.83l1.98-9.96,3.72,18.45c1.01,2.71,1.82,5.5,2.89,8.19,7.87,10.16,9.74,43.58-4.58,25.28v41.95c0,.4,7.39-.49,7.98.01,1.75,1.48-4.2,6.08-3.71,10.46.51,4.58,7.11,10.55,7.46,16.45.82,13.9-10.37-.31-13.72,3.05-1.02,1.02,2,24.2,2.04,28.85.23,23.68.14,49.47-.02,72.26-.2,29.3,2.42,17.27,14.82,34.86,2.76,3.91,9.04,19.89,11.01,20.88,2.15,1.08,6.33-1.88,8.72-1.2,4.36,1.25,1.54,13.15,9.38-1.84-.17,26.59-3.16,54.24-8.51,80.36-5.41,26.41-21.32,55.24-17.43,81.42,4.44-10.3,8.53-8.47,19.03-8.03,18.22.76,36.38,8.23,52.3,11.7.85.18,3.29-.16,6.37-.6,4-1.44,8.31-1.66,12.68-1.29,2.25-.02,4.22.18,5.59.75,2.21.38,4.41.85,6.56,1.32,4.06-.32,26.68,4.11,29.89,4.65,7.73,1.3,13.54,2.71,20.33,3.77,13.32,2.07,40.73,4.04,51.88,8.1,4.82,1.75,6.71,17.13,8.25,17.59,9.84,2.93,6.13-13.12,6.96-13.97,2.02-2.08,50.82,6.04,57.36,7.63,5.72,1.39,8.27,5.96,9.63,6.36,1.64.49.38-3.82,2.32-4,9.11-.84,22.65,1.98,34.07,4.59,5.76.22,11.43,1.17,16.67,3.36,6.88.52,13.8.65,20.69,1.29,1.87.18,3.73.43,5.58.72.81.02,1.58.06,2.31.12,6.23.49,55.27,7.81,57.28,9.91.81.85-.68,7.1.02,7.98.91,1.15,8.86-5.88,14.82-6.06,7.57-.24,50.42,6.72,56.27,10.01,2.29,1.29,2.55,5.76,2.9,6.04,5.02,3.99,3.63-5.71,3.97-5.99,1.74-1.43,31.04,4.21,47.66,5.86,2.37,0,4.74-.01,7.11-.1,5.91-.21,13.99.75,19.33-2.12-.05-2.03-.37-3.45-.13-3.62,1.5-1.09,8.16,9.38,13.01,9.97,2.32.28,34.03-2.74,36.15-3.6,10.88-4.37,8.72-17.81,13.2-25.32-.59-2.37-1.63-4.69-3.37-7.01,0-.01-.01-.02-.02-.03ZM647.73,789.12c-2.37-3.71-15.04-18.59-11.96-21.96,5.93-6.48,16.76,15.94,11.96,21.96Z"/>
      <path class="cls-1" d="M1440.28,869.11c5-1.52,10.78-.58,15.47,1.83,9.29.19,53.72,4.16,55.39,6.24.35.43.38,7.06.31,11.68,1.4-.07,2.8-.18,4.2-.33,2.77-4.32,7.04-10.26,7.57-10.5.56-.25,9.29.12,13.66.56,2.43-.3,4.81-.19,7.17.23,5.06-.32,34.56,6.79,40.16,4.04,1.67,13.26,9.04,2.13,11.99,1.98,6.59-.34,29.75,5.65,30.97.97,1.76-6.73-4.98-11.55-5.62-16.29-.66-4.87,1.53-16.75-.08-27.57-.47-3.14-4.15-3.03-4.22-4.09-.24-3.97,5.06-10.32,5.67-14.3.54-3.55-3.14-16.36.37-18.46.48-.29,5.14,2.82,5.97,2,1.79-1.75-1.83-40.71-.95-44.22,2.64-10.5,22.31-6.28,22.98-8.74,3.21-11.78-7.46-6.44-8.02-6.98-.61-.58,10.57-10.31-5.54-6.65-5.08,1.16,2.78,2.07-11.45,2.44-2.83.07-10.49,2.7-10.99,2.21-.67-.66,5.12-13.66,4.13-17.6l3.87,11.6c5.26,1.56,4.77-4.64,4.88-7.79.17-5.26-3.18-13.72-3.1-21.34.07-6.18,4.24-4.76,4.27-6.12.05-2.04-1.72-22.11-2.03-23.23-.52-1.87-16.67-9.83-3.99-8.46-4.96-12.21,2.79-4.66,5.96-6.99.66-.48-5.81-8.12-4-9.96.59-.6,5.29.61,6.02-.01.66-.57-2.3-4.21-.25-7.06,1.78-2.49,14.38-9.61,18.18-11.66,2.23-1.21,7.89,3.91,8.03-6.27.09-6.58-4.52,1.63-7.05-2.87-8.02-14.29.58-21.6,13.05-26.04-29.4,1.93-12.33-2.49-15.91-14.56-.7-2.35-5.63-1.7-6.22-6.41-.11-.89,3.48-16.83,4.02-17.55,2-2.67,6.47-1.05,7.87-4.68,3.14-8.1-4.6-21.97-3.72-22.74.76-.67,10.33,5.49,15.16-7.96,2.95-8.22-5.17-25.13,2.86-33.97l16.98,26.06c7.45,15.51,24.24,30.88,33.88,49.71,1.07,2.09-1.68,5.24-.61,7.67.42.95,6.31,1.73,7.37,7.91.78,4.49-2.28,8.82-1.83,11.17.3,1.56,4.91,2.37,6.58,5.81,1.79,3.69,3.92,12.09,4.82,13.51,1.09,1.71,11.79,10.7,12.7,12.01,1.02,1.46-8.25,2.68-3.01,11.99,2.3,4.08,8.14-4.81,11.02-2.02.88.85-2.81,6.93-1.99,7.96.4.51,4.75-1.65,6.69,2.39,2.76,5.75.83,16.94,3.33,23.58.88-12.01,10.9,3.18,15.26,8.68,13.64,17.2,13.85,26.06,21.16,45.82,1.82,4.92,9.61,13.61,9.55,14.47-.06.75-7.65.1-1.52,9.46,8.08,12.32,13.2-4.52,15.48,4.49.53,2.08-4.41-.11-3.98,1.97,2.23,10.82,24.99,22.07,18.01,40.96,9.6-14.46,23.04-13.34,35.94-21.97-1.24,8,3.66,17.35,2.22,25.01-.85,4.52-4.99,3.42-5.86,6.21-.69,2.21-.88,19.54-.31,20.73.17.36,6.88-1.85,7.98,0,.7,1.18-1.74,6.02-.56,9.54,1.34,4,11.81,3.19,8.58,18.4l1.99-5.97,5.95,5.98c-1.38-4.48,3.11-15.13,6.05-17.95,2.21-2.13,1.13,6.95,5.96,3.97-3.71-14.4,11.32-29.38,24.96-28.21,5.18.44,6.43,9.89,7.08,10.23,7.19,3.81,42.19-52.39,54.47-70.89,1.17-2.24,2.65-4.34,4.33-6.51,1.36-1.76,2.79-3.62,4.5-5.04,38.93-83.56,83.16-166.03,123.61-249.27,1.68-3.47-1.35-7.06-.04-9.77,3.32-6.83,13.23-26.64,19.96-35.73,1.2-2.58,2.65-5.01,4.25-7.33.92-1.38,1.89-2.71,2.91-4,2.1-5.26,18.62-28.31,19.85-29.92,3.57-4.69,9.06-6.77,12.88-11.1,3.31-3.75,1.15-13.21,11.09-11.9l-10.96-7.99c2.3,8.87-10.29,5.9-13.07,7.31-6.46,3.26-11.57,10.54-14.45,12.28-1.17.7-7.71-1.39-14.01,4.33-3.36,3.05-11.94,21.92-14.48,22.04-2.52.12.54-10.19-1.98-9.96-4.71.42-4.49,20.27-13.94,24.7-3.14,3.89-7.41,6.88-11.95,9.05-9.31,10.98-11.26-.7-20.04.03-3.22.26-25.8,2.67-27.14,3.06-13.07,3.85-4.13,15.25-13.72-6.46-1.83.06-3.67.1-5.5.1-5.72,2.27-10.96,4.79-16.23,4.09-2.32.02-4.63-.21-6.65-.48-4.91-.68-10.5-2.09-13.65-6.18l-2.11.05c-5.69-7.81,6.53-17.12,5.18-19.19-.58.09-1.16.15-1.72.16-1.08.42-2.36.59-3.53.52-2.47-.16-4.97-.86-6.77-2.41-13.91-3.44-23,13.04-35.34,19.23-2.42,1.79-4.85,3.56-7.29,5.31-16.17,17.56-42.44,37.72-54.49,57.32-4.55,7.4-12.59,35.47-14.01,36.91-.47.47-4.62-.98-6.18,1.23-1.58,2.23-1.36,9.56-4.82,10.79-2.01.72.06-4.47-1.98-3.98-1.81.44-3.92,6.22-7.98,6.01-1.44-.07-5.83-22.45-8.59-27.47-2.33-4.23-13.8-11.7-14.41-13.52-.47-1.4,6.13,2.46.39-10.38-4.42-9.87-20.32-27.47-22.36-33.6-1.46-4.39,6.4-2.61,3.95-4.92-.43-.41-4.71-.65-6.17-2.86-.87-1.3-2.06-3.99-3.31-6.94-3.33-5.01-5.67-10.27-5.84-16.35-4.32-8.39-13.41-12.01-17.43-20.04-3.28-6.54-3.71-16.7-7.33-24.09-12.66-25.81-31.15-70.87-46.34-94.15-1.88-2.88-21.65-26.87-23.85-28.89-.73-.67-4.26,2.12-5.36,1.38-1.01-.68-3.25-8.99-7.58-9.59-.66-.09-12.24,3.29-12.71,3.75-2.31,2.27,11.43,16.79,7.99,19.95-1.71,1.57-31.73-3.99-32.98-9.97,3.4,23.12-4.29,6.71-14.19,4.14-3.77-.98-2.68,7.18-6.75,3.82-.45-.37-.46-4.84-4.08-6.89-8.23-4.67-17.45-9.08-25.94-13.81-1.64-.92-5.55,1.29-5.98.76-.58-.7.63-4.99-.14-5.87-.22-.25-3.61,1.49-6.53-.23-4.98-2.93-11.68-6.67-16.05-10.17-3.85-3.08-8.08-16.71-15.27-11.69-1.24.87,5.31,7.1-.97,5.95-4.48-3.78-10.58-17.11-12.45-25.03-2.09,4.45-4.21,8.8-7.24,12.32-4.59,8.1-6.36,13.8-3.34,24.71-7.07,2.27-1.28-7.8-6.95-5.96-10.71,3.48-21.99,37.07-20.01,5.99-5.33,7.06-6.72,16.85-12.15,23.81-4.11,5.27-12.68,8.66-13.56,10.55-3.07,6.63-9.2,46.51-11,56.8-1.98,11.36-6.85,67.85-10.34,88.86.23.52.29,1.14.11,1.83-1.91,7.3-2.95,14.81-3.91,22.32-.01.24-.03.46-.03.66-.16,4.89-.76,10.75-1.63,16.44.48.46.79,1.11.79,1.97,0,6.06-.02,12.27-1.99,18.08-1.21,3.58-2.62,7.14-4.01,10.66-.31.8-.64,1.66-.97,2.56.18,8.72.21,17.41-.34,26.04-5.08,79.84-18.25,173.01-28.22,253.46-1.36,10.98-14.7,80.23-11.72,83.19,1.04,1.03,19.92,1.92,30.91,2.07ZM1767.07,481.61c2.05,2.3,1.01,15.63-7.05,8.06-10.48-9.84,3.88-11.63,7.05-8.06Z"/>
      <path class="cls-1" d="M2892.99,375.16c-.77-1.3,1.22-4.77.32-7.13-4.92-13.03-7.9-4.57-13.26-6.36-1.5-.5-1.26-3.5-2.89-3.9-4.01-.97-14,.41-14.42-.19-.73-1.04.46-5.41-.11-5.95-.89-.84-18.49,3.02-24.44,1.63-7.54-1.76-20.91-11.69-29.54-14.59-18.05-6.05-33.79-4.7-50.77-11.18-2.44-.93-3.04-5.68-6.13-6.95-8.65-3.55-25.06-1.51-34.64-3.46-.35-.07-.94-3.68-2.8-4.06-4.46-.91-32.21-6.83-33.57-5.35-.91.99,1.4,7.83-.99,7.98-2.59.16-12.33-7.84-13.92-8.1-21.16-3.48-53.45,1.91-75.55-4.2-9.56-2.64-23.79-14.77-35.55-18.59-12.66-4.11-27.25-1.81-33.62-3.46-1.29-.34-18.6-15.84-20.8-16.78-8.37-3.57-10.33.15-24.9-6.73-2.49-1.18-8.42,1.15-10.42-.34-.74-.56,1.03-4.37-1.45-5.77-1.33-.75-4.47-.65-7.53-1.07-4.64.13-9.32.28-13.77-.8-10.08-.14-21.21-3.82-27.99,3.7-24.93-16.59-52.65-25.48-81.36-33.69,2.55,7.55,14.15,10.7,17.88,15.07,3.42,4.01,3.63,10.38,7.25,14.73,3.58,4.31,19.02,17.71,19.94,20.18,1.81,4.81-3.88,9.11-3.09,9.9,3.8,3.77,6.61-4.12,6.98-3.96,13.19,5.42-2.5,6.41-4.53,8.44-2.28,2.29-2.11,9.2-2.48,9.53-2.33,2.08-7.16-4.95-7.96-3.99-.65.79,3.99,8.66-6.98,18-3.6,3.06-10.68,4.51-12.51,6.48-2.52,2.72-3.27,13.07-5.66,13.49-.76.13-14.57-2.62-15.09-3.19-2.35-2.6.82-31.04-1.07-36.3-1.45-4.06-7.13-3.09-9.6-6.54-9.28-12.95,5.21-28.32-11.05-39.88-1.15,19.36-5.64,38.03-9.19,56.96-.2,1.08,3.21,3.61,2.76,5.6-2.89,12.88-13.81,19.91-16.73,29.37-3.42,11.12-1.27,34-6.47,45.11-2.02,4.33-19.24,18.87-22.92,27.16-1.25,2.82-3.74,19.42-7.29,26.43.09,4.25-3.37,8.25-7.5,11.22l-28.65,131.75-9.97-1.98c17.21,4.89,7.63,15.5-6.79,15.69-17.66.23-22.1-9.63-42.23-1.77-3.14,1.23-48.39,39.81-50.98,42.94-10.29,12.43-15.78,49.66-16.05,65.91-.1,6.04,4.05,27.18,6.1,14.07,1.43-9.15-.93-27.24,5.78-35.83,1.71-2.19,5.92-.8,6.22-1.18.59-.75-4.26-10.3-.02-18.57.97-1.88,20.32-10.36,24.01-14.96,6.04-7.51-.28-7.97.82-10.42,1.07-2.39,7.68-4.48,10.06-8.07,6.48-9.8.24-17.37,15.96-24.01,15.78-6.67,31.38-8.49,47.12-1.83-30.77,31,.54,16.64,2,17.98.59.54-10.11,10.16-3.97,13.96.8.49,13.77-18.38,13.92-7.07.04,3.01-9.08,23.05-11.19,26.9-1.54,2.79-4.97,6.55-7.9,12.07-1.08,2.03-4.73,1.88-4.85,2.12-1.22,2.43,5.83,3.68,6,4,.39.73-4.98,10.83-5.56,15.53-2.32,18.78-2.28,30.98-9.98,49.84-1.78,4.37-7.89,3.76-8.37,11.64-.3,4.91,2.38,9.29,1.98,13.72-.51,5.76-5.66,17.72-4.17,22.03.86,2.5,5.67-.32,6.14,2.06,1.32,6.72-14.3,12.33,12.54,21.38,6.93,2.34,18.54-3.54,15.42,9.55,4.91,1.92,5.12-5.81,6.89-5.87,7.57-.26,48.04,20.04,60.6,19.2,7.7,14.3,4.62,4.34,12.88,4.99,10.39.81,64.67,19.92,68.63,19.16,3.93-.76,5.84-13.17,8.13-13.66,2.2-.47,19.99,8.12,28.04,7.94,6.93-.15,11.42-4.38,19.52-3.74,3.77.3,40.46,14.09,49.27,19.32,1.91.5,3.65,1.64,5.18,2.98,3.28,1.51,11.86,6.52,14.27,4.99,4.44,2.28,14.83,14.34,15.87,14.64.99.29,19.78,2.67,20.54,1.97.44-.4-1.33-10.74,6.01-5.97.21.14-2.18,3.8-2.02,3.95,3.46,3.27,34.94,7.96,41.99,10.03l-.95.43c4.32,1.3,8,4.76,9.37,9.15,2.37,1.76,5.01,3.6,6.97,4.01,11.61,2.45,19.12,4.82,30.47,7.47,10.15,2.37,50.51,12.69,54.08-2.12.17-.68-9.54-3-11.98-6.64-1.5-2.24-1.23-15.02.23-16.07,1.4-1.01,7.85.06,11.3-1.54,3-1.39,3.8-6.3,5.39-6.47,8.57-.97,30.09,29.1,26.25,1.76-2.19-15.6-12.62-29.82-24.19-39.93-48.69-42.54-124.58-47.86-181.98-68.89-3.61-1.32-6.35-6.55-7.93-7.01-1.71-.5-.47,4.06-2.1,4.08-1.86.02-6.8-1.42-10.31-3.23-4.73-.3-9.15-1.92-13.69-3.46-.67-.23-1.15-.62-1.48-1.09-5.02-1.31-10.53-2.93-11.4-3.33-4.27-1.94-1.81-9.13-10.59-6.9-1.44.36-1.44,3.75-2.82,3.91-2.44.29-22.37,1.84-23.58,1.76-2.93-.19-28.84-8.91-30.46-10.19-6.26-4.94,2.01-12.14,1.6-16.43-.09-.96-4-1-4.25-2.32-.42-2.2,3.13-7.56,2.13-8.74-1.03-1.22-4.9,3.51-5.99.95-4.88-11.46,8.21-24.52,20-16.96-16.55-8.93,3.41-32.67,2-33.92-.78-.69-11.78,5.61-7.66-12.51,1.24-5.44,28.69-35.67,33.06-43.96-6.81-25.2,22.71-38.69,27.21-55.77,4.88-18.5-7.63-3.44-8.66-8.65-.91-4.64,7.4-13.74,8.02-18.12,2.04-14.58-4.55-40.42,2.83-54.76,1.45-2.82,6.69-3.65,6.99-4.28.43-.9-2.69-12.96,1-19.28.68-7.02,2.08-14.72,6.92-18.37l5.24-5.97c4.56,9.53,14.87-.33,18.99,3.99.21.22.37.43.5.63,1.4-.03,2.79-.02,4.2.09,4.65.35,9.26,1.01,13.93,1.23,7.21.34,14.76.49,21.12,4.31.2.12.38.26.54.41,10.51,2.34,9.7,9.78,12.95,11.02,15.21,5.78,14.89-5.4,15.82-5.8,7.54-3.31,16.48,7.28,17.44,7.6,2.15.71,19.58,4.33,20.63,4.24,1.3-.12.63-3.64.85-3.73,5.18-1.99,3.21,3.12,5.29,3.98,2.24.93,7.42-.78,8.68,0,1.22.75-8.46,7.59-5.97,9.96,2.14,2.04,8.65-5.87,9.19-5.93,13.01-1.43,42.53,4.14,55.99,5.69,6.44.74,47.14,4.39,48.73,6.26,1,1.18-7.15,6.94-5.99,7.94,1.64,1.42,33.56-9.36,42.76-7.47,3.13.64,4.93,5.98,8.64,7.07,2.41.71,22,1.11,23.41.56.52-.21,3.5-9.68,3.18-10.1-.43-.56-14.42-2.76-10.01-8,3.15-3.74,15.28,3.34,20.68,1.71,2.65-.8,2.83-5.26,5.77-6.4,7.49-2.91,73.64-21.08,78.4-21.29-.13-.38-.18-.78-.16-1.18-4.32-.08-8.34-.32-11.75-.83-13.56-2.02,6.97-9.92,8.07-11.87,6.15-10.89-20.07-8.53-21.05-13.11-.49-2.31,6.01.38,6.01-1.99s-6.47.33-6.01-1.99c1.13-5.64,36.55-8.11,42.51-9.46,3.44-.78,7.47-3.72,11.16-5.7,1.72-1.34,2.76-2.75,2.67-5.29-4.12-2.73-11.68-8.41-12.02-8.99ZM2282.96,389.61l1.95-25.96c-.77,7.27,5.54,21.35-1.95,25.96Z"/>
      <path class="cls-1" d="M1399.37,584.38c-5.4-3.01-4.18-14.14-6.44-16.54-3.76-3.99-23.06.67-29.37-5.08-1.41-.49-2.78-1.08-4.16-1.7v.34c-9.57-3.24-20.38.96-28.79-.07-17.44-2.14.42-22.89,4.78-1.94-1.02-6.78,4.45-15.12,4.17-21.1-.04-.88-5.31-8.17-6.09-15.91-.86-8.58,3.3-37.48,1.95-38.88-.59-.61-5.26.6-6.01-.02-.78-.64,4.3-15.42,1.12-20.13-1.51-2.24-6.57-1.41-7.11-1.86-3.87-3.27,5.43-5.03,5.87-7.08.56-2.61-4.62-11.05-4.84-15.8-1.43-32.28,1.18-52.78-4.04-84.96-2.83-17.43-4.05-23.27,1.46-40.59.87-2.73,9.42-3.81,2.6-15.47-1.28-2.19-4.91.34-5.02.12-.67-1.28,2.37-23.71,1.83-28.83-.32-3.08-3.25-5.24-3.66-8.33-.66-4.93-1-27.93-2.19-28.74-2.82-1.92-12.29,7.86-15.55-5.49-1.44-5.88,2.2-17.53,1.55-18.52-.12-.19-3.79,2.33-3.96,2.03-.33-.57.45-12.49.57-13.13.57-2.88,5.65-2.02,5.39-3.85-.7-4.91-13.26-21.78-7.96-30.96-11.17,2.25-3.24-7.24-4.02-7.98-1.15-1.09-13.2,6.04-15.84-1.32-1.2-12.56-1.79-25.12-2.01-37.69-.96-.23-1.88-.62-2.71-1.13-3.64,3.45-20.62.88-21.42.16-3.85-3.48,16.22-23.12,1.44-17.53-7.1,2.69-16.92,26.03-18.42,25.52-4.04-1.37-6.03-37.57-9.08-39.9-14.04-10.73-16.8,38.89-17.39,41.26-3.47,13.91-11.62,13.51-12.5,14.65-.8,1.03,2.5,10.51,1.93,14.74-.32,2.39-6.85,28.19-7.98,29.19-.02.02-.06.01-.08.02-.68,3.23-2.05,6.06-4.19,9.19-1.64,2.4-3.4,5.01-5.52,7.18-1.72,6.37-4.1,14.61-4.58,15.16-.85.99-7.22,1.12-10.63,4.37-5.55,5.28-9.18,11.96-14.94,17.03-1.21,5.65,3.87.77,3.96.95.83,1.75-1.35,7.85,1,7.99,3.08.18,21.78-18.99,26.17-20.08,1.51-1.5,3.19-2.83,5.06-3.93,2.75-5.42,7.44-12.34,9.76-9.91.95.99-4.82,23.75-5.12,27-.46,4.98,8.17,13.67-2.89,17.95l8,1.96c-3.75,9.12-6.65,22.49-7.78,32.14-.1.88,3.9.88,3.8,1.75-.58,4.95-4.19,18.37-7.03,25.02-.68,2.68-1.42,5.34-2.19,7.97-.59,2.01-1.25,4.07-2.21,5.95-3.2,14.62-10.2,27.69-10.33,41.17,0,1.03,4.2.23,3.98,3.8-.38,6.32-5.2,7.66-5.57,10.05-.1.67,3.36,6.42,1.25,13.53-.69,2.32-3.69.61-3.92,2.48-.68,5.38,3.47.97,6.01,4.39,7.62,10.25-.6,21.11-5.56,30.82.02.12.04.24.04.37.02,1.89.33,3.79.24,5.68-.05,1.01-.22,2-.89,2.78-.8,5.24-3.17,15.33-4.32,16.38-8.85,8.12-20.58-2.36-24.77-2.92-27.53-3.66-21.73-3.09-46.05-12.15-5.87-2.19-16.58.41-19.23-.68-3.39-1.38-3.31-5.85-6.65-7.28-1.75-.75-10.1,1.88-13.57,1.31-47.33-7.75-75.39-8.45-121.68-7.17-9.79.27-19.1,4.7-26.38,5.44-5.74.58-.46-3.81-1.03-4.04-8.62-3.37-17.73,5.81-26.9,3.96-5.43-1.1-6.95-6.61-9.99-7.17-18.92-3.46-33.75,21.27-32.82-17.57.22-9.15,9.37-17.55,7.76-28.16-15.41,4.45-2.98-18.92-4.34-23.82-.82-2.96-6.58-3.4-7.35-6.34-.52-1.99,2.72-7.58,1.66-8.8-3.49-4.03-6.66,4.22-6.98,3.97-2.87-2.22-2.06-5.61-3.6-7.4-1.06-1.24-5.42-.77-6.48-2.44-2.14-3.37.1-9.1-1.43-12.61-16.65-38.28-20.96-42.15-7.69-83.01,4.78-14.71,2.39-9.28-9.78-8.41l9.97-14.97-9.97,8.99c2.31-4.01.88-11.96,1.91-14.72.26-.7,10.28-4.28,11.98-8.82.34-.9,2.44-16.16,2.24-16.99-.15-.63-9.84-6.27-4.14-9.39,5.41-2.95,13.32,14.76,7.85-8.47-.52-2.2-4.32-.88-3.85-2.5.55-1.87,10.68-8.17,7.97-11-1.19-1.24-24.55,18.69,3.03-13.97-3.06,5.77,3.38,13,6.98,9.96.66-.56-1.88-4.31-.91-6.06,1.41-2.54,5.46-3.8,6.09-6.81.44-2.1-1.73-6.79-.84-11.64.5-2.72,5.3-5.01,5.37-6.43.05-1.22-4.8-4.11-3.71-4.98.63-.5,5.67.62,8.18-.98,1.53-.98.06-4.2,1.85-5.91,5.08-4.82,27.52-22.5,11.94-21.12.99-14.83-3.76-23.53,4.01-37.93-4.05-1.07-13.19,13.28-15.97,9.96-.71-.85.53-21.07.99-22.07,1.05-2.29,10.38-3.97,8.98-9.87-7.48,3.02-14.47-3.43-19.07-3.9-23.23-2.4-20.54,19.29-32.8,29.1-3.96,3.17-6.86.97-9.13,2.63-12.61,9.22-7.7,13.26-11.91,22.14-1.44,3.03-6.69,3.77-6.86,4.15-.43.96,2.58,5.1,1.95,6.52-.62,1.39-4.77,3.04-7.13,9.2-1.72,4.47-.13,9.52-2.02,14.01-2.16,5.13-14.25,11.28-17.11,18.86-2.22,5.89-.82,11.08-2.19,15.87-.75,2.63-5.07,2.59-5.69,4.7-1.57,5.32,2.44,11.78,1.04,16.46-1.59,5.28-19.35,26.22-20.09,28.02-1.51,3.68,2.87,10.72.78,16.66-1.2,3.43-6.62,4.16-7.67,6.35-.76,1.58,3.7.34,4,2.3.65,4.22-.48,8.53.41,13.27,5.73,30.55.11,42.32-1.95,72.32-.36,5.2,5.65,16.42-2.44,10.97l-13.17,43.8c-3.61,14.84-16.24,23.59-22.6,35.35-2.91,5.38-11.02,36.64-13.77,40.35-1.03,2.46-2.28,4.82-3.7,7.07-.84,1.79-1.7,3.59-2.61,5.37-1.36,4.54-2.98,9.39-3.23,9.81-2.26,3.87-7.5,3.93-10.01,9.98-1.66,4-11.48,62.12-15.45,65.85-1.02,4.56-2.55,9.09-4.21,13.36-.28.72-.61,1.6-.98,2.52-.1,3.08-.2,6.15-.32,9.23-.39,9.96-6.8,17.98-6.06,28.02.72,9.81,1.72,14.26,1.94,25.95.08,4.43.92,12.01,1.68,20.22,3.64,5.71,7.2,11.46,11.72,16.57,2.17,2.46,4.31,4.89,6.3,7.42,5.41,3.9,11.12,6.4,14.49,4.71.26-.13-4.72-5.17.95-3.96,19.11,19.66,16.75,29.45,46.57,35.37,81.91,16.27,223.65-4.8,311.21-9.5,19.71-1.06,39.57-1.68,59.35-1.87,5.03-1.97,12.61-.54,17.07-1.2.33-.05.63-.03.92,0,9.76-2.53,33.97-.32,40.75-.78,4.29-.29,27.23-4,38.58-4.11,3.2-1.18,6.39-1.75,9.92-1.52.27.02.51.07.75.14,2.44-.05,4.93.09,7.41.38,25.09-2.63,50.34-4.9,75.57-4.97,3.45-1.03,6.84.22,10.27.85l79.39-10.63c.58-.31,1.24-.42,1.9-.25h.01s0,0,0,0c.1.03.19.06.29.1,1.28-.13,2.41.16,3.71.55,1.88.56,3.8.36,5.73.02.41-.07.79-.06,1.15.02,9.42-2.42,29.08,8.5,30.08,7.37,1.8-2.03-15.93-20.66-19.53-20.19,4.69-2.06,3.63-10.37,1.53-11.76-2.82-1.87-7.03,6.5-9.95,3,8.99-8.79,3.18-5.39,2.76-9.94-1.11-11.8,22.95,3.22,21.25-8.09-.25-1.67-4.7.98-4.06-3.94.28-2.18,4.32.8,3.84-3.85-.08-.8-3.88-14.33-4.3-15.59-.92-2.72-6.16-6.6-5.5-7.52.37-.51,11.62-3.53,11.99-4.04,1.53-2.14-12.69-7.7,5.99-4.96ZM843.21,92.44c.42.05,4.83,4.57,6.43,5.49l-21.97,4c1.63-4.03,12.06-9.93,15.55-9.49ZM693.75,407.57c3.71-10.05-12.34-5-11.97-8.98.57-6.14,14.92-.56,15.7,1.25.17.39-1.31,8.46-3.73,7.72ZM705.75,367.63c1.79-5.8,1.4-12.21,2.95-18,.73-2.73,4.16-15.2,9.01-13.95-6.71,10.09-3.18,25.04-11.96,31.94ZM787.84,262.06c-.34.68,1.62,12.27-6.15,11.68,1.69-3.29,2.49-31.16,9.99-23.94.84.81-2.13,3.88-1.58,5.72.14.47,3.48.12,3.53.29,1.61,5.2-5.19,5.04-5.79,6.25ZM1317.43,477.51c3.87-4.9,8.54,11.21,5.97,13.98-6,6.49-7.94-11.5-5.97-13.98ZM1321.4,495.49c.88.93-2.26,3.48-1.03,6,1.12,2.29,4.92-.24,5.02-.01,3.56,7.58-6.34,31.6-13.96,23.95-1.16-1.16,6.53-33.57,9.97-29.95ZM1315.4,552.45c-.17,1.34,6.27-.21,4.01,4.94-20,.96-3.96-13.27-4-19.01-.02-2.85-4.84-6.3-3.99-6.92.4-.3,9.58-.28,10,0,.36.23-1.79,3.47-1.35,4.66,6.08,16.22-3.54,7.39-4.68,16.34Z"/>
      <path class="cls-1" d="M3326.38,58.97c-14.94,17-25.84,35.1-33.36,56.53-2.82,8.04-.31,14.18-1.59,18.33-1.15,3.74-10.91,10.73-11.09,11.53-1.18,5.28,5.07,24.55,5.34,31.82.36,9.62-1.05,22.48-1.12,33.37-.01,1.63-4.38.75-4.12,2.25,3.66,20.94,4.01,34.81,6.52,55.44,2.62,21.5,6.56,11.97,14.84,20.14,7.16,7.06,6.79,52.33,8.9,65.99.87,5.63,6.48,16.74,5.71,17.24-2.03,1.31-41.32,2.25-47.08,2.14-4.23-.09-7.47-4.22-9.62-3.89-2.06.32-3.94,5.22-8.32,5.73-24.21,2.82-40.02-.1-61.88-2.03-.71-.06-.88,4.79-8.16,5.88-12.36,1.85-37.29,2.88-49.95,2.28-4.67-.22-7.78-4.56-11.79-4.21-3.86.34-5.43,4.72-8.53,5.68-17.09,5.29-7.94-7.23-10.42-14.46-.9-2.61-5.73.23-6.18-2.12-.38-2.01,3.76-7.11,4.08-11.91,2.51-36.78-2.41-74.06,3.29-110.6,1.01-6.47,12.18-40.68,10.66-42.25-4.42-4.55-49.12-8.18-57.23-13.33-6.96.31-28.65,4.06-33.78,3.23-4.52-.73-.83-6.67-.98-9.89-8.72,1.42-4.94,16.83-5.98,17.98-1.66,1.82-14.12-3.31-17.32-3.38-2.72-.06-16.98.17-18.84.32-10.06.77-20.05,3.34-7.82,11.02-10.54.03-21.31-3.68-31.24-5.32-2.26-.38-5.25,1.68-7.35,1.34-2.22-.36-10.9-9.89-20.24-4.38-.8.87-1.64,1.71-2.56,2.46-1.99,1.63-4.25,2.84-6.42,4.21-.09.06-.18.09-.27.14-4.09,3.5-8.89,4.84-13.01,9.48-9.94,11.22-18.42,36.68-34.3,41.55-9.9,3.04-20.82-4.31-20.74,9.48.06,11.29,7.86,10.01,8.28,11.99,1.5,7.01-10.06,6.94-6.05,10.96.44.44,7.77-1.51,12.57.45,2.51,1.03,2.62,3.82,4.11,4.94,1.64,1.23,5.08.37,5.29.63.81.98-5.72,6.27-3.17,10.06,3.2,4.76,26.64,5.97,33.5,8.59,9.28,3.54,6.45,7.25,8.13,8.69,2.16,1.86,7.71,1.18,10.11,3.98.94-.5,2.18-.53,3.13.06.14-.43.32-.83.56-1.16.29-.41,9.26-2.51,9.69-2.26,3.19,1.84-7.82,6.77-4,9.97.6.5,6.24-.54,8.74.3,4.03,1.35,1.06,5.1,1.49,5.55.75.79,10.65-1.38,3.71,5.09-2.65,2.47-9.76,2.84-11.07,4.93-.65,1.04,4.09,21.78-5.87,22.09-.26,0-.46-.09-.61-.25-.77,2.16-3.29,2.28-4.68,1.14-1.77,2.25-3.6,3.71-3.71,4.14-.53,2.06,10.18,5.67,6.15,7.96,0,1.22-.16,2.33-.48,3.34,2.12,1.27-2.91,5.36-3.17,7.14-.84,5.71,2.67,15.68,6,20.14.81,1.08,5.17,0,5.51.37.45.5-3.03,11.83-7.98,1.99-.53,1.71.39,11.99.2,15.09.78.43,1.22,1.22,1.33,2.07,6.76,0,11.84.2,12.43.81,1.44,1.47,4.11,37.36,3.95,40.94-.62,13.31-8.49,26.07-6.94,40.08.73,6.63,6.08,2.71,4.99,8.86-1.91-.32-7.59.37-9.44.18-.36.29-.81.49-1.29.6-.85,1.82-1.92,3.57-3.25,5.03v1.2c0,3.32-14.49,13.71-9.98,18.97.91,1.06,7.62-3.9,8.01-.96.7,5.34-5.82,14.5-6.02,15.97-.3,2.09,4.47-.1,3.99,1.97-.51,2.17-7.81,5.29-8.05,10-.07,1.44,3.14.4,3.83,1.92.29.65-2.56,4.22-1.78,5.06.55.59,5.48-.57,6.01.02,1.29,1.43-2.55,8.29-2.14,10.64.21,1.2,11.06,5.47,7.97,14.03-1.98,5.49-19.27,4.34-17.93,16.15.2,1.73,4.46.33,4.09,2.11-1.04,5.04-11.9,13.09-11.98,14.01-.21,2.34,4.21-.45,6.01,1.99.48.65-5.83,1.22-5.8,8.03.01,2.26,2.58,4.23,2.73,5.94.27,3.11-2.03,8.67-.93,11.01.08.18,2.99-2,3.58-1.54.87.68,1.05,3.42,2.52,4.27,2.12,1.23,13.57,4.61,13.86,5.29.43.97-6.62,11.44-6,11.91,1.13.85,9-.78,9.98.04,1.91,1.57-4.57,9.39-4,9.96.65.64,5.25-1.28,6.15,1.09,4.39,11.61-7.57,13.66-11.01,19.03-9.08,14.18,2.23,11.23,2.88,11.87,3.16,3.13-14.56,10.35,10,7.97l.03,1.35c1.27.03,2.53.18,3.78.43.89-3.41,14.16-3.98,14.91-3.73,2.17.71,2.09,4.48,4.11,6.1,2.27,1.81,6.67,1.55,7.1,2.01.83.89-3.6,4.39,2.02,8.78,9.67,7.55,22.28,5.42,25.73,7.34.58.33,3.03,9.68,7.78,10.86-4.85,18.62,24.29,15.69,26.46,31.81.15,1.09-12.65,3.9-17.66,12.28-4.67,7.8-16.53,46.18-10.29,52.61,1.56,1.61,13.3-11.19,16.06-2.61.88,2.74.75,21.2-1.56,26.91.01.22,0,.44-.04.68-.32,1.98-.9,3.86-1.58,5.72,4.16,1.94,12.73,7.11,15.03,8.06,2.29.94,6.13-1.62,8.14,0,2.56,2.05,1.35,8.55,3.81,10.37,1.29.96,5.96-1.69,8.96-1.24,2.72.41,6.61,4.67,7.11,4.06,1.39-1.66-3.35-10.28-1.96-11.98.69-.84,4.92,3.26,7.03.01.93-1.43-1.07-6.93.22-9.1-.38-2.51-.55-5.02-.94-6.84-.21-.98.05-1.79.54-2.41-1.2-5.87-2.82-15.67-2.81-16.42.04-5.72,7.59-20.47,7.92-24.2.17-1.88-5.67.11-3.95-2.94.11-.19,3.09.2,3.28-.39,1.16-3.56,4.33-12.41,4.69-14.84.51-3.47-2.69-9.78-1.99-10.76,1.63-2.31,19.92,3.3,21.01,3.28,1.96-.02,5.09-4.92,9.92-5.09,4.62-.16,20.2,1.52,28.13,1.73,3.47.09,25.96,3.05,26.87,2.05,4.83-5.31-12.16-78.09-10.26-90.6-1.8-4.7-7.72-3.14-11.72-3.28-1.52-6.76,8.27-3.86,9.61-9.15,2.03-8.04-9.4-51.85-7.82-63.74.78-5.9,9-3.89,8.2-5.99-1.03-2.67-6.42-2.29-7.43-3.54-2.75-3.37-8.76-76.07-6.52-79.37.62-.91,3.16,2.94,4.91,3.08,11.15.86,8.24-23.2,27.03.92-3.65-23.3,3.8-10.68,13.19-9.89,3.65.31,2.61-4.05,3.97-4.16,2.17-.18,10.3,3.27,14.17,3.94,3.76.65,8.64-1.66,10.81-.82,4.46,1.71,4.95,12.22,9.84,15.94,5.2,3.96,13.2,1.76,16.69,10.11-1.83-5.64,4.64-9.03,9.31-6.26,2.23,1.32,13.05,22.36,14.26,22.95,1.58.78,9.07-4.04,14.41-.02,2.79,2.1,2.13,8.85,3.5,10.09,1.91,1.73,10.7-3.78,12.79-3.84.76-.02,12.91.23,13.66.33,5.42.74,19.71,7.56,22.32,7.65,1.38.05.53-3.22,1.91-3.9.58-.29,4.35,2.63,5.08,1.81,3.86-4.33-13.74-28.96-14.09-30.96-.37-2.17,1.59-18.38,2.19-21.59.29-1.58,3.41-1.23,3.72-2.29.19-.66-2.98-5.41-1.77-7.08.86-1.19,7.5,8.44,9.97,5.97.61-.61-5.76-11.02-4.14-16.62.85-2.94,6.74-1.94,7.87-3.64,1.76-2.63-2.4-8.56,3.28-7.7,5.43.82,4.97,6.92,8.15,7.67,2.83.67,7.38-3.45,12.85-.74,4.06,2.01,5.59,13.14,10.1,16.02,2.23,1.42,15.89-.17,19.35,5.55,3.32,5.49,4.37,32.49,6.87,40.16.89,2.74,11.65,17.76,13.38,23.78,3.07,2.33,5.29,5.99,7.42,9.33,15.84,5.83,2.4,31.6,9.18,41.87.48.73,4.81-.73,5.75,1.49,4.01,9.54,5.61,25.24,9.03,32.55,1.81,3.85,8.8,6.96,10.02,12,1.58,6.52.41,20.45,3.03,30.89,3.17,12.62,15.7,38.85,16.47,49.38.57,7.84-4.15,15.77-4.09,16.78.06,1.07,10.4,15.94,11.05,18.38,1.99,7.43,1.16,28.25,2.55,37.3.42,2.74,3.82,11.28,5.26,15.99,1.17.49,2.06,1.69,1.74,3.32-.46,2.34-1.49,5.07-3.13,7.09.12,3.5-2.55,14.23-2.06,14.71.79.78,6.47-2.11,9.63,3.39,3.74,6.51,1.08,30.26,2.6,32.36.63.87,6.46.47,8.35,2.1,11.46,9.88,5.38,31.8,9.83,35.67,2.22,1.93,13.33.65,15.8,3.63.76.92,8.69,18.29,10.09,21.52,1.42,3.26,1.15,12.98,2.68,13.24,6.82,1.15,1.9-27.01,2.98-27.98.62-.55,4.96.83,6.54-.02,2.32-1.24.98-4.69,2.46-3.97,3.53,1.7,3.91,15.43,13.73,11.82,5.03-1.85,4.42-18.68,11.86-17.53,1.64.25,5.26,5.51,7.38,3.7,7.25-6.17,1.88-37.7-.18-46.75-1.13-4.99-7.5-11.26-6.97-16.17.34-3.18,5.88-6.73,6.57-10.27.18-.95-.69-15.77,1.08-20.93.32-2.32.66-4.85,1.36-7.15-.55-3.22-1.74-6.39-1.81-9.6-.89-41.87-18.03-56.59-15.91-103.73,1.32-29.37,1.95-57.75,7.76-84.5,2.2-10.15,7.57-36.57,6.23-45.54-.53-3.58-6.84-5.25-8.05-12.11-1.23-6.97,2.4-20.76,1.02-26.85-1.52-6.7-10.45-12.82-11.08-14.92-.5-1.66,3.41-.21,3.88-2.45,1.9-9.09-.75-38.69,1.44-41.98,2.79-4.17,7.43-2.52,9.78-6.55.79-1.35,3.65-21.89,5.28-23.66.98-1.06,5.23.14,5.6-.28,6.46-7.08-25.59-44.78-24.02-54.89,3.41-4.06,11.99,4.94,14.01,2.96,1.03-1.01-9.81-11.08-9.41-19.35.22-4.57,3.56-6.81,5.18-9.41-.03-.06-.06-.11-.08-.18-1.09-3.1-.5-6.13.68-9.03h-.35c.26-.37.54-.71.81-1.06.09-.2.18-.4.28-.6.39-.81.99-1.25,1.63-1.4,5.98-5.37,14.81-6.65,18.22-14.94.42-1.03,3.69-15.42,3.04-15.91-1.23-.92-26.07-1.08-30.55-2.45-4.98-1.52-7.07-7.68-10.1-11.01-1.55-1.7-7.32,1.87-5.37-5.56.33-1.26,4.77-.35,4.04-1.97-.29-.65-10.31-8.81-11-8.99-1.73-.46-.52,3.98-2.01,4.11-7.78.69-19.43-31.37-25-39.04-4.37-6.01-25.65-24.27-26.01-28.09-.44-4.7,3.97-8.18,3.96-11.97-.02-5.2-4.64-23.99-4.01-25.87.3-.89,8.91.54,8.13-14.08-.44-8.21-9.19-17.39-8.11-23.63.22-1.28,4.18-1.27,4.17-2.27-.03-2.84-6.19-10.33-7.09-14.96-4.7-24.18,9.11-21.37,12.74-40.84.52-2.79-2.92-7.19-1.53-11.83.81-2.69,5.58-2.68,5.96-4.55.73-3.62-4.69-10.23-5.28-14.55-.51-3.73,1.74-12.76.7-15.13-.44-1-10.56-13.24-11.4-16.58-7.61-30.32,7.46-29.86,27.79-44.31-20.85-3.73-38.77-6.49-54.01,10.91-2.15,2.45-5.4,14.26-7.91,13.03-.54-.26-5.67-9.93-5.65-10.52.29-10.71,26.35-19.65-2.37-12.43,4.5-7.32,40.27-38.51,35.95-44.95-.4-.6-13.79.13-14.48.33-2.49.68-39.35,21.78-45.01,25.09-6.63,3.87-12.19,15.41-25.42,14.56-2.07-.13,1.47-3.88-.83-5.1-1.19-.62-3.11-.75-4.79-.78-.95.41-1.92.81-2.72,1.38-1.67,1.2-2.31,2.76-3.37,4.43-.88,1.4-2.23,1.66-3.34,1.22-2.75,2.28-9.47,5.09-9.93,4.82-7.33-4.5.94-24.37,7.89-28.06.92-3.39,3.53-6.75,6.45-8.25,2.54-3.7,11.86-9.65,13.01-12.19,1.63-3.58-.2-9.36,2.59-13.42-7.97.21-6.05,14.42-12.75,17.41-2.91,3.17-6.21,5.91-9.83,8.29-6.43,6.09-30,24.98-35.43,31.16ZM2926.45,306.8c-.63-.31-3.59-8.86-6.46-12.43-1.2-1.5-4.57-1.91-6.75-3.11-.08-.01-.17,0-.25-.02-2.08-.41-4.8-1.51-6.64-2.59-.65-.38-1.18-.87-1.59-1.43-2.81-2.33-10-11.76-8.1-13.44.56-.49,4.69.27,7.38,1.16.36-.2.77-.33,1.25-.36,1.6-.11,3.16-.41,4.74-.67.2-.03.38-.04.57-.04.02-.05.04-.08.06-.1.64-.65,17.29,2.33,18.01,2.88,3.74,2.85-.28,7,.91,9.13,1.32,2.37,5.24-.12,6.91,1.05,9.61,6.78,3.25,11.96,4.16,12.89,1.1,1.13,8.79-4.27,9.98,1.99-7.44-.48-16.63,8.84-24.16,5.11Z"/>
    </g>
  </g>
</svg>